<svg width="19" height="21" viewBox="0 0 19 21" fill="none" xmlns="http://www.w3.org/2000/svg">
<path d="M6.91016 9.09668H4.91016V11.0967H6.91016V9.09668ZM10.9102 9.09668H8.91016V11.0967H10.9102V9.09668ZM14.9102 9.09668H12.9102V11.0967H14.9102V9.09668ZM16.9102 2.09668H15.9102V0.0966797H13.9102V2.09668H5.91016V0.0966797H3.91016V2.09668H2.91016C1.80016 2.09668 0.920156 2.99668 0.920156 4.09668L0.910156 18.0967C0.910156 19.1967 1.80016 20.0967 2.91016 20.0967H16.9102C18.0102 20.0967 18.9102 19.1967 18.9102 18.0967V4.09668C18.9102 2.99668 18.0102 2.09668 16.9102 2.09668ZM16.9102 18.0967H2.91016V7.09668H16.9102V18.0967Z" fill="#9A9CAD"/>
</svg>
