<svg width="85" height="70" viewBox="0 0 85 70" fill="none" xmlns="http://www.w3.org/2000/svg">
<path d="M84.1874 16.0207L57.3085 5.77313C56.6567 5.52475 55.9272 5.8516 55.6788 6.50269C55.4304 7.15443 55.7573 7.88399 56.409 8.13237L80.194 17.2003L63.7286 23.4784L43.0207 14.1024C42.3852 13.8145 41.6375 14.0966 41.3502 14.7315C41.0623 15.367 41.3444 16.1147 41.9793 16.4027L60.405 24.7456L42.5 31.5717L4.80602 17.2003L42.5 2.82894L51.7891 6.37104C52.4395 6.61877 53.1697 6.29257 53.4188 5.64083C53.6671 4.98974 53.3403 4.26018 52.6886 4.01181L42.9501 0.298503C42.6602 0.188258 42.3398 0.18761 42.0499 0.298503L0.812569 16.0207C0.323601 16.2075 0 16.677 0 17.2003V22.9655C0 23.4888 0.323601 23.9583 0.812569 24.1451L13.6898 29.0542V33.429C13.6898 34.1261 14.2546 34.6916 14.9518 34.6916C15.6496 34.6916 16.2144 34.1261 16.2144 33.429V30.0172L42.0499 39.8673C42.1952 39.9224 42.3476 39.9503 42.5 39.9503C42.6524 39.9503 42.8048 39.9224 42.9501 39.8673L62.4245 32.4426V52.4216C56.3104 55.631 49.4545 57.3508 42.5 57.3508C33.0086 57.3508 23.6987 54.1511 16.2144 48.3283V38.4789C16.2144 37.7817 15.6496 37.2162 14.9518 37.2162C14.2546 37.2162 13.6898 37.7817 13.6898 38.4789V48.9398C13.6898 49.323 13.8636 49.6856 14.1626 49.9249C22.1722 56.3417 32.2362 59.8754 42.5 59.8754C49.4221 59.8754 56.2521 58.2658 62.4245 55.251V60.3605C60.3901 60.9163 58.8902 62.7794 58.8902 64.9875C58.8902 67.6321 61.0419 69.7845 63.6864 69.7845C66.3317 69.7845 68.4834 67.6321 68.4834 64.9875C68.4834 62.7794 66.9834 60.9163 64.9491 60.3605V53.9177C67.0068 52.7471 68.9782 51.4151 70.8381 49.9249C71.137 49.6856 71.3115 49.323 71.3115 48.9398V29.0536L84.1874 24.1444C84.6764 23.9583 85 23.4888 85 22.9648V17.2003C85 16.677 84.6764 16.2075 84.1874 16.0207ZM65.9588 64.9875C65.9588 66.2398 64.9393 67.2592 63.6864 67.2592C62.4342 67.2592 61.4148 66.2398 61.4148 64.9875C61.4148 63.7346 62.4342 62.7152 63.6864 62.7152C64.9393 62.7152 65.9588 63.7346 65.9588 64.9875ZM2.5246 19.033L41.2374 33.7928V36.855L2.5246 22.0952V19.033ZM43.7626 36.855V33.7928L62.4245 26.6775V29.7403L43.7626 36.855ZM68.7862 48.3276C67.5547 49.2861 66.2727 50.1719 64.9491 50.9851V31.4796L68.7862 30.0166V48.3276ZM64.9491 28.7773V25.7151L82.4754 19.033V22.0952L64.9491 28.7773Z" fill="black" fill-opacity="0.21" style="mix-blend-mode:multiply"/>
</svg>
