<svg version="1.1" xmlns="http://www.w3.org/2000/svg">
  <symbol id="home" viewBox="0 0 32 31" fill="none" >
      <path d="M29.4421 30.8938H20.7096C20.2691 30.8934 19.8467 30.7153 19.5352 30.3986C19.2237 30.0818 19.0485 29.6523 19.0481 29.2044V23.8463C19.0481 21.9471 17.5691 20.3603 15.7519 20.309C15.2985 20.2956 14.8472 20.3749 14.4245 20.5422C14.0019 20.7095 13.6165 20.9613 13.2913 21.2828C12.9662 21.6043 12.7077 21.9889 12.5314 22.4138C12.3551 22.8387 12.2644 23.2952 12.2648 23.7564V29.2044C12.2641 29.6522 12.0888 30.0815 11.7773 30.3982C11.4659 30.7148 11.0438 30.8931 10.6033 30.8938H1.86946C1.42893 30.8934 1.00655 30.7153 0.695048 30.3986C0.383545 30.0818 0.208379 29.6523 0.208008 29.2044L0.208008 12.0043C0.208548 11.7397 0.270002 11.4789 0.387451 11.2428C0.504901 11.0066 0.675084 10.8018 0.884378 10.6445L14.6714 0.32792C14.956 0.1149 15.3002 0 15.6537 0C16.0071 0 16.3513 0.1149 16.6359 0.32792L30.4272 10.6431C30.6364 10.8007 30.8065 11.0059 30.924 11.2422C31.0414 11.4786 31.1029 11.7395 31.1035 12.0043V29.2044C31.1032 29.6523 30.928 30.0818 30.6165 30.3986C30.305 30.7153 29.8826 30.8934 29.4421 30.8938ZM20.7321 29.1815H29.4196V12.0158L15.6565 1.71773L1.89192 12.0158V29.1815H10.5809V23.7593C10.5808 23.0693 10.7168 22.3863 10.9808 21.7507C11.2447 21.1152 11.6313 20.5398 12.1177 20.0588C12.6042 19.5778 13.1805 19.2008 13.8126 18.9501C14.4448 18.6995 15.12 18.5803 15.7982 18.5995C18.5191 18.6766 20.7321 21.0253 20.7321 23.8492V29.1815Z" fill="white"/>
  </symbol>

  <symbol id="avatar" width="41" height="41" viewBox="0 0 41 41" fill="none">
    <path d="M14.0352 19.832C12.6552 19.832 11.5352 20.952 11.5352 22.332C11.5352 23.712 12.6552 24.832 14.0352 24.832C15.4152 24.832 16.5352 23.712 16.5352 22.332C16.5352 20.952 15.4152 19.832 14.0352 19.832ZM26.0352 19.832C24.6552 19.832 23.5352 20.952 23.5352 22.332C23.5352 23.712 24.6552 24.832 26.0352 24.832C27.4152 24.832 28.5352 23.712 28.5352 22.332C28.5352 20.952 27.4152 19.832 26.0352 19.832ZM20.0352 0.332031C8.99516 0.332031 0.0351562 9.29203 0.0351562 20.332C0.0351562 31.372 8.99516 40.332 20.0352 40.332C31.0752 40.332 40.0352 31.372 40.0352 20.332C40.0352 9.29203 31.0752 0.332031 20.0352 0.332031ZM20.0352 36.332C11.2152 36.332 4.03516 29.152 4.03516 20.332C4.03516 19.752 4.07516 19.172 4.13516 18.612C8.85516 16.512 12.5952 12.652 14.5552 7.87203C18.1752 12.992 24.1352 16.332 30.8752 16.332C32.4352 16.332 33.9352 16.152 35.3752 15.812C35.7952 17.232 36.0352 18.752 36.0352 20.332C36.0352 29.152 28.8552 36.332 20.0352 36.332Z" fill="#EB5757"/>
  </symbol>

  <symbol width="9" height="6"  id="arrow" viewBox="0 0 9 6" fill="none">
    <path d="M4.79395 5.82434L0.928124 0.734508L8.65977 0.734508L4.79395 5.82434Z" fill="#919BD2"/>
  </symbol>

  <symbol width="69" height="65" id="star" viewBox="0 0 69 65" fill="none">
    <path d="M34.5 52.2863L55.3575 64.875L49.8225 41.1488L68.25 25.185L43.9838 23.1263L34.5 0.75L25.0162 23.1263L0.75 25.185L19.1775 41.1488L13.6425 64.875L34.5 52.2863Z" fill="#FDAC62"/>
  </symbol>

  <symbol id="caption" viewBox="0 0 15 19" fill="none">
    <path d="M1.56934 16.332C1.56934 17.432 2.46934 18.332 3.56934 18.332H11.5693C12.6693 18.332 13.5693 17.432 13.5693 16.332V4.33203H1.56934V16.332ZM14.5693 1.33203H11.0693L10.0693 0.332031H5.06934L4.06934 1.33203H0.569336V3.33203H14.5693V1.33203Z" fill="#AEB0C2"/>
  </symbol>

  <symbol id="calendar" viewBox="0 0 19 21" fill="none">
    <path d="M6.09766 9.58789H4.09766V11.5879H6.09766V9.58789ZM10.0977 9.58789H8.09766V11.5879H10.0977V9.58789ZM14.0977 9.58789H12.0977V11.5879H14.0977V9.58789ZM16.0977 2.58789H15.0977V0.587891H13.0977V2.58789H5.09766V0.587891H3.09766V2.58789H2.09766C0.987656 2.58789 0.107656 3.48789 0.107656 4.58789L0.0976562 18.5879C0.0976562 19.6879 0.987656 20.5879 2.09766 20.5879H16.0977C17.1977 20.5879 18.0977 19.6879 18.0977 18.5879V4.58789C18.0977 3.48789 17.1977 2.58789 16.0977 2.58789ZM16.0977 18.5879H2.09766V7.58789H16.0977V18.5879Z" fill="#9A9CAD"/>
  </symbol>

  <symbol id="delete" viewBox="0 0 15 19" fill="none" >
    <path d="M1.56934 16.332C1.56934 17.432 2.46934 18.332 3.56934 18.332H11.5693C12.6693 18.332 13.5693 17.432 13.5693 16.332V4.33203H1.56934V16.332ZM14.5693 1.33203H11.0693L10.0693 0.332031H5.06934L4.06934 1.33203H0.569336V3.33203H14.5693V1.33203Z" fill="#AEB0C2"/>
  </symbol>

  <symbol id="editing" viewBox="0 0 15 19" fill="none" >
    <path d="M0.586914 14.582V18.332H4.33691L15.3969 7.27203L11.6469 3.52203L0.586914 14.582ZM18.2969 4.37203C18.6869 3.98203 18.6869 3.35203 18.2969 2.96203L15.9569 0.622029C15.5669 0.232029 14.9369 0.232029 14.5469 0.622029L12.7169 2.45203L16.4669 6.20203L18.2969 4.37203Z" fill="#AEB0C2"/>
  </symbol>

  <symbol id="news" viewBox="0 0 32 32" fill="none" >
    <path d="M29.4456 31.869H1.86594C1.42635 31.8686 1.00486 31.6931 0.694021 31.3808C0.383179 31.0686 0.208384 30.6453 0.208008 30.2037L0.208008 4.93336C0.208384 4.49194 0.383225 4.06874 0.694107 3.75675C1.00499 3.44475 1.42648 3.2695 1.86594 3.2695H29.4456C29.8849 3.26988 30.3062 3.44525 30.617 3.75716C30.9278 4.06907 31.1028 4.49206 31.1035 4.93336V30.2037C31.1032 30.6453 30.9284 31.0686 30.6175 31.3808C30.3067 31.6931 29.8852 31.8686 29.4456 31.869ZM1.91282 30.1566H29.3987V4.98188H1.91282V30.1566Z" fill="white"/>
    <path d="M30.2513 10.2089H1.06055V11.9213H30.2513V10.2089Z" fill="white"/>
    <path d="M7.68542 7.27648C7.45934 7.27648 7.24253 7.18627 7.08267 7.02571C6.92281 6.86514 6.83301 6.64737 6.83301 6.42029V1.8297C6.83301 1.60262 6.92281 1.38485 7.08267 1.22428C7.24253 1.06372 7.45934 0.973511 7.68542 0.973511C7.91149 0.973511 8.1283 1.06372 8.28816 1.22428C8.44802 1.38485 8.53782 1.60262 8.53782 1.8297V6.42029C8.53782 6.64737 8.44802 6.86514 8.28816 7.02571C8.1283 7.18627 7.91149 7.27648 7.68542 7.27648Z" fill="white"/>
    <path d="M15.6551 7.27648C15.4291 7.27648 15.2123 7.18627 15.0524 7.02571C14.8925 6.86514 14.8027 6.64737 14.8027 6.42029V1.8297C14.8027 1.60262 14.8925 1.38485 15.0524 1.22428C15.2123 1.06372 15.4291 0.973511 15.6551 0.973511C15.8812 0.973511 16.098 1.06372 16.2579 1.22428C16.4177 1.38485 16.5076 1.60262 16.5076 1.8297V6.42029C16.5076 6.64737 16.4177 6.86514 16.2579 7.02571C16.098 7.18627 15.8812 7.27648 15.6551 7.27648Z" fill="white"/>
    <path d="M23.6268 7.27648C23.4007 7.27648 23.1839 7.18627 23.0241 7.02571C22.8642 6.86514 22.7744 6.64737 22.7744 6.42029V1.8297C22.7744 1.60262 22.8642 1.38485 23.0241 1.22428C23.1839 1.06372 23.4007 0.973511 23.6268 0.973511C23.8529 0.973511 24.0697 1.06372 24.2296 1.22428C24.3894 1.38485 24.4792 1.60262 24.4792 1.8297V6.42029C24.4792 6.64737 24.3894 6.86514 24.2296 7.02571C24.0697 7.18627 23.8529 7.27648 23.6268 7.27648Z" fill="white"/>
    <path d="M15.6567 22.2669C15.3875 22.267 15.1212 22.2101 14.8753 22.0999L7.8458 18.9534C7.67809 18.8804 7.53529 18.7597 7.43499 18.6062C7.33469 18.4526 7.28125 18.273 7.28125 18.0894C7.28125 17.9058 7.33469 17.7262 7.43499 17.5727C7.53529 17.4192 7.67809 17.2984 7.8458 17.2254L14.8753 14.086C15.1214 13.9766 15.3876 13.9201 15.6567 13.9201C15.9258 13.9201 16.192 13.9766 16.4381 14.086L23.4662 17.2254C23.6334 17.2989 23.7756 17.4198 23.8755 17.5732C23.9754 17.7267 24.0286 17.9061 24.0286 18.0894C24.0286 18.2727 23.9754 18.4521 23.8755 18.6056C23.7756 18.759 23.6334 18.8799 23.4662 18.9534L16.4381 22.0928C16.1927 22.2054 15.9264 22.2647 15.6567 22.2669ZM10.1047 18.0973L15.5686 20.5417C15.6251 20.5645 15.6883 20.5645 15.7448 20.5417L21.2073 18.0973L15.7448 15.6557C15.717 15.6437 15.687 15.6375 15.6567 15.6375C15.6264 15.6375 15.5964 15.6437 15.5686 15.6557L10.1047 18.0973Z" fill="white"/>
    <path d="M8.85924 23.8351C8.63317 23.8351 8.41636 23.7449 8.2565 23.5844C8.09664 23.4238 8.00684 23.206 8.00684 22.9789V18.4726C8.00684 18.2455 8.09664 18.0277 8.2565 17.8671C8.41636 17.7066 8.63317 17.6164 8.85924 17.6164C9.08532 17.6164 9.30213 17.7066 9.46199 17.8671C9.62184 18.0277 9.71165 18.2455 9.71165 18.4726V22.9789C9.71165 23.0914 9.6896 23.2027 9.64677 23.3066C9.60393 23.4105 9.54114 23.5049 9.46199 23.5844C9.38283 23.6639 9.28887 23.7269 9.18545 23.77C9.08203 23.813 8.97118 23.8351 8.85924 23.8351Z" fill="white"/>
    <path d="M15.6207 28.5485C15.307 28.549 14.9995 28.4599 14.7342 28.2916L10.8984 25.8529C10.6616 25.7033 10.4665 25.4957 10.3316 25.2496C10.1966 25.0034 10.1262 24.7269 10.127 24.4459V19.4515C10.127 19.2244 10.2168 19.0066 10.3766 18.846C10.5365 18.6855 10.7533 18.5953 10.9794 18.5953C11.2054 18.5953 11.4223 18.6855 11.5821 18.846C11.742 19.0066 11.8318 19.2244 11.8318 19.4515V24.4202L15.6207 26.8289L19.4097 24.4202V19.4515C19.4097 19.2244 19.4995 19.0066 19.6593 18.846C19.8192 18.6855 20.036 18.5953 20.2621 18.5953C20.4882 18.5953 20.705 18.6855 20.8648 18.846C21.0247 19.0066 21.1145 19.2244 21.1145 19.4515V24.4459C21.1154 24.7269 21.045 25.0035 20.9101 25.2497C20.7751 25.4958 20.58 25.7034 20.3431 25.8529L16.5072 28.2916C16.2418 28.4597 15.9345 28.5487 15.6207 28.5485Z" fill="white"/>
  </symbol>

  <symbol id="events" viewBox="0 0 33 32" fill="none" >
    <path d="M27.471 24.6424C25.9696 24.6424 24.3616 23.7805 22.8448 22.1363C21.0953 20.2488 19.6233 17.5062 18.7023 14.4041C16.7088 7.70304 17.9102 1.63448 21.4387 0.587837C24.9672 -0.458805 29.2892 3.97263 31.2869 10.6737C32.2079 13.7716 32.4785 16.8752 32.0467 19.4106C31.5813 22.1559 30.3392 23.9596 28.542 24.4899C28.1942 24.5917 27.8335 24.643 27.471 24.6424ZM22.5056 2.11442C22.3067 2.11356 22.1088 2.14185 21.9182 2.19838C19.6583 2.86722 18.4752 7.73942 20.3144 13.9255C21.1654 16.7828 22.5013 19.2945 24.0785 21.0002C25.4901 22.5281 26.9453 23.2138 28.071 22.8793C29.1967 22.5449 30.0406 21.1793 30.3883 19.1307C30.778 16.8416 30.5285 14.0081 29.6733 11.155C27.9855 5.47263 24.7696 2.11442 22.5056 2.11442Z" fill="white"/>
    <path d="M22.1317 20.474L21.6565 18.8649C22.2173 18.6984 22.6925 16.5323 21.7869 13.4903C21.3663 12.0911 20.7341 10.8024 20.0401 9.95442C19.4598 9.2464 18.9579 8.99313 18.7392 9.0589L18.2598 7.44836C18.8303 7.28045 19.9911 7.24127 21.3439 8.89239C22.185 9.91944 22.9168 11.3831 23.4018 13.0118C24.3593 16.2469 24.2345 19.8513 22.1317 20.474Z" fill="white"/>
    <path d="M5.37632 25.356C4.74688 25.356 3.84688 25.0622 2.84174 23.835C2.00061 22.8066 1.26743 21.3429 0.783786 19.7142C0.30014 18.0855 0.110887 16.461 0.25528 15.1415C0.478178 13.0804 1.42304 12.4563 2.00061 12.2674C10.1847 8.88679 15.1249 5.21375 19.4848 1.97448C20.0567 1.5547 20.6203 1.13493 21.181 0.715149L22.1764 2.06823C21.6156 2.47681 21.0549 2.89285 20.4941 3.31636C16.0488 6.6228 11.002 10.37 2.60902 13.8332L2.52772 13.8625C2.30762 13.9283 2.02585 14.4124 1.92771 15.322C1.80856 16.4106 1.97958 17.8406 2.39594 19.2399C2.8123 20.6391 3.44875 21.9278 4.14408 22.7744C4.72445 23.4838 5.22492 23.7371 5.44501 23.6713L5.49969 23.6545L5.55716 23.6461C11.8053 22.6974 22.0558 22.4959 28.3572 22.8499L28.2633 24.529C22.0642 24.1806 12.0016 24.3751 5.85857 25.3014C5.70078 25.34 5.53874 25.3583 5.37632 25.356Z" fill="white"/>
    <path d="M16.3402 31.3309C16.2043 31.3309 16.0692 31.3107 15.9393 31.2707L13.1356 30.4311C12.8089 30.3332 12.5301 30.1178 12.3533 29.8267L9.07715 24.4353L10.5141 23.5622L13.7384 28.857L15.9688 29.5272L15.1052 23.7553L16.7692 23.5076L17.7029 29.7469C17.7323 29.9428 17.719 30.1427 17.6641 30.3331C17.6092 30.5234 17.5138 30.6997 17.3846 30.85C17.2553 31.0003 17.0951 31.121 16.9149 31.204C16.7347 31.2869 16.5387 31.3302 16.3402 31.3309Z" fill="white"/>
  </symbol>

  <symbol id="code-classes" viewBox="0 4 37 32" fill="none" >
    <path d="M18.5188 17.0876C18.0525 17.0886 17.5911 16.9922 17.1643 16.8047L0.84854 9.55807C0.658625 9.47792 0.496592 9.34375 0.382676 9.17231C0.268759 9.00086 0.208008 8.79974 0.208008 8.59407C0.208008 8.3884 0.268759 8.18728 0.382676 8.01583C0.496592 7.84439 0.658625 7.71022 0.84854 7.63007L17.1643 0.386252C17.5916 0.199464 18.053 0.103027 18.5195 0.103027C18.986 0.103027 19.4474 0.199464 19.8746 0.386252L36.1848 7.63007C36.3741 7.7107 36.5356 7.84506 36.6491 8.01644C36.7626 8.18783 36.8231 8.38869 36.8231 8.59407C36.8231 8.79945 36.7626 9.00031 36.6491 9.1717C36.5356 9.34308 36.3741 9.47744 36.1848 9.55807L19.8746 16.8047C19.4474 16.9924 18.9856 17.0887 18.5188 17.0876ZM2.86107 8.59053L17.8564 15.2516C18.0656 15.3425 18.2913 15.3894 18.5195 15.3894C18.7477 15.3894 18.9734 15.3425 19.1825 15.2516L34.1751 8.59053L19.1825 1.94224C18.9734 1.85131 18.7477 1.80438 18.5195 1.80438C18.2913 1.80438 18.0656 1.85131 17.8564 1.94224L2.86107 8.59053Z" fill="white"/>
    <path d="M2.74647 20.7077C2.52078 20.7077 2.30434 20.6183 2.14475 20.4591C1.98516 20.3 1.89551 20.0841 1.89551 19.859V9.4721C1.89551 9.24701 1.98516 9.03113 2.14475 8.87197C2.30434 8.7128 2.52078 8.62338 2.74647 8.62338C2.97216 8.62338 3.18861 8.7128 3.34819 8.87197C3.50778 9.03113 3.59743 9.24701 3.59743 9.4721V19.859C3.59743 20.0841 3.50778 20.3 3.34819 20.4591C3.18861 20.6183 2.97216 20.7077 2.74647 20.7077Z" fill="white"/>
    <path d="M18.4376 31.5713C17.9221 31.57 17.4175 31.4229 16.9825 31.1469L8.07858 25.5327C7.6903 25.2886 7.37053 24.9501 7.14925 24.5491C6.92797 24.148 6.81244 23.6975 6.81348 23.2397V11.7283C6.81348 11.5032 6.90314 11.2873 7.06272 11.1281C7.22231 10.969 7.43876 10.8795 7.66445 10.8795C7.89014 10.8795 8.10658 10.969 8.26617 11.1281C8.42575 11.2873 8.51541 11.5032 8.51541 11.7283V23.2397C8.5152 23.4111 8.55854 23.5797 8.64138 23.7299C8.72421 23.88 8.84385 24.0068 8.98911 24.0983L17.893 29.7197C18.0563 29.8216 18.245 29.8756 18.4376 29.8756C18.6302 29.8756 18.819 29.8216 18.9822 29.7197L27.8861 24.0983C28.0317 24.0071 28.1515 23.8804 28.2344 23.7302C28.3173 23.58 28.3605 23.4112 28.3598 23.2397V11.7283C28.3598 11.5032 28.4495 11.2873 28.6091 11.1281C28.7687 10.969 28.9851 10.8795 29.2108 10.8795C29.4365 10.8795 29.6529 10.969 29.8125 11.1281C29.9721 11.2873 30.0618 11.5032 30.0618 11.7283V23.2397C30.0631 23.6975 29.9477 24.1482 29.7264 24.5493C29.5051 24.9504 29.1851 25.2888 28.7967 25.5327L19.8928 31.154C19.4571 31.4277 18.9525 31.5724 18.4376 31.5713Z" fill="white"/>
  </symbol>

  <symbol id="smi" viewBox="0 0 35 32" width="32" fill="none" >
    <path d="M13.4882 24.1039H5.64419C5.43838 24.1039 5.24099 24.1858 5.09546 24.3315C4.94992 24.4772 4.86816 24.6748 4.86816 24.8808C4.86816 25.0869 4.94992 25.2845 5.09546 25.4302C5.24099 25.5759 5.43838 25.6578 5.64419 25.6578H13.4882C13.694 25.6578 13.8914 25.5759 14.0369 25.4302C14.1825 25.2845 14.2642 25.0869 14.2642 24.8808C14.2642 24.6748 14.1825 24.4772 14.0369 24.3315C13.8914 24.1858 13.694 24.1039 13.4882 24.1039Z" fill="white"/>
    <path d="M25.2173 24.1039H17.3747C17.1688 24.1039 16.9715 24.1858 16.8259 24.3315C16.6804 24.4772 16.5986 24.6748 16.5986 24.8808C16.5986 25.0869 16.6804 25.2845 16.8259 25.4302C16.9715 25.5759 17.1688 25.6578 17.3747 25.6578H25.2201C25.4259 25.6578 25.6233 25.5759 25.7688 25.4302C25.9144 25.2845 25.9961 25.0869 25.9961 24.8808C25.9961 24.6748 25.9144 24.4772 25.7688 24.3315C25.6233 24.1858 25.4259 24.1039 25.2201 24.1039H25.2173Z" fill="white"/>
    <path d="M25.2169 4.66577H5.63878C5.43852 4.67434 5.2493 4.76001 5.11062 4.90491C4.97195 5.0498 4.89453 5.24272 4.89453 5.44339C4.89453 5.64405 4.97195 5.83697 5.11062 5.98186C5.2493 6.12676 5.43852 6.21243 5.63878 6.221H25.2169C25.4171 6.21243 25.6064 6.12676 25.745 5.98186C25.8837 5.83697 25.9611 5.64405 25.9611 5.44339C25.9611 5.24272 25.8837 5.0498 25.745 4.90491C25.6064 4.76001 25.4171 4.67434 25.2169 4.66577Z" fill="white"/>
    <path d="M25.2166 8.5531H17.374C17.1671 8.5531 16.9686 8.6354 16.8223 8.7819C16.676 8.92839 16.5938 9.12709 16.5938 9.33426C16.5938 9.54144 16.676 9.74013 16.8223 9.88663C16.9686 10.0331 17.1671 10.1154 17.374 10.1154H25.2195C25.4264 10.1154 25.6249 10.0331 25.7712 9.88663C25.9175 9.74013 25.9998 9.54144 25.9998 9.33426C25.9998 9.12709 25.9175 8.92839 25.7712 8.7819C25.6249 8.6354 25.4264 8.5531 25.2195 8.5531H25.2166Z" fill="white"/>
    <path d="M25.2166 12.4405H17.374C17.1671 12.4405 16.9686 12.5228 16.8223 12.6693C16.676 12.8158 16.5938 13.0145 16.5938 13.2217C16.5938 13.4288 16.676 13.6275 16.8223 13.774C16.9686 13.9205 17.1671 14.0028 17.374 14.0028H25.2195C25.4264 14.0028 25.6249 13.9205 25.7712 13.774C25.9175 13.6275 25.9998 13.4288 25.9998 13.2217C25.9998 13.0145 25.9175 12.8158 25.7712 12.6693C25.6249 12.5228 25.4264 12.4405 25.2195 12.4405H25.2166Z" fill="white"/>
    <path d="M25.2166 16.3335H17.374C17.1671 16.3335 16.9686 16.4158 16.8223 16.5623C16.676 16.7088 16.5938 16.9075 16.5938 17.1147C16.5938 17.3218 16.676 17.5205 16.8223 17.667C16.9686 17.8135 17.1671 17.8958 17.374 17.8958H25.2195C25.4264 17.8958 25.6249 17.8135 25.7712 17.667C25.9175 17.5205 25.9998 17.3218 25.9998 17.1147C25.9998 16.9075 25.9175 16.7088 25.7712 16.5623C25.6249 16.4158 25.4264 16.3335 25.2195 16.3335H25.2166Z" fill="white"/>
    <path d="M25.2167 20.2152H17.3741C17.1739 20.2238 16.9847 20.3095 16.846 20.4543C16.7073 20.5992 16.6299 20.7922 16.6299 20.9928C16.6299 21.1935 16.7073 21.3864 16.846 21.5313C16.9847 21.6762 17.1739 21.7619 17.3741 21.7704H25.2196C25.4198 21.7619 25.609 21.6762 25.7477 21.5313C25.8864 21.3864 25.9638 21.1935 25.9638 20.9928C25.9638 20.7922 25.8864 20.5992 25.7477 20.4543C25.609 20.3095 25.4198 20.2238 25.2196 20.2152H25.2167Z" fill="white"/>
    <path d="M13.4886 20.2152H5.64464C5.44438 20.2238 5.25516 20.3094 5.11648 20.4543C4.97781 20.5992 4.90039 20.7921 4.90039 20.9928C4.90039 21.1935 4.97781 21.3864 5.11648 21.5313C5.25516 21.6762 5.44438 21.7618 5.64464 21.7704H13.4886C13.5934 21.7749 13.6981 21.7581 13.7962 21.7211C13.8943 21.684 13.984 21.6274 14.0597 21.5548C14.1355 21.4821 14.1957 21.3949 14.2369 21.2983C14.2781 21.2017 14.2993 21.0978 14.2993 20.9928C14.2993 20.8878 14.2781 20.7839 14.2369 20.6873C14.1957 20.5907 14.1355 20.5035 14.0597 20.4308C13.984 20.3582 13.8943 20.3016 13.7962 20.2646C13.6981 20.2275 13.5934 20.2107 13.4886 20.2152Z" fill="white"/>
    <path d="M13.4882 8.5531H5.6442C5.43838 8.5531 5.24099 8.63495 5.09546 8.78065C4.94993 8.92635 4.86817 9.12396 4.86817 9.33001V17.1857C4.86798 17.2878 4.88791 17.389 4.92683 17.4834C4.96575 17.5778 5.02288 17.6637 5.09496 17.7359C5.16704 17.8082 5.25265 17.8656 5.34689 17.9047C5.44114 17.9439 5.54217 17.964 5.6442 17.964H13.4882C13.6944 17.964 13.8921 17.882 14.0379 17.736C14.1837 17.5901 14.2657 17.3921 14.2657 17.1857V9.33001C14.2657 9.22786 14.2455 9.12672 14.2064 9.03237C14.1674 8.93802 14.1101 8.85231 14.0379 8.78015C13.9656 8.70799 13.8799 8.65079 13.7856 8.61183C13.6913 8.57287 13.5902 8.55292 13.4882 8.5531ZM12.7122 16.4059H6.42165V10.1083H12.7122V16.4059Z" fill="white"/>
    <path d="M32.98 3.88742H30.6534V1.56239C30.6534 1.14926 30.4899 0.75295 30.1988 0.46016C29.9077 0.16737 29.5126 0.00193889 29.0999 6.10352e-05L1.76858 6.10352e-05C1.35469 6.10352e-05 0.957753 0.164663 0.665089 0.457657C0.372425 0.75065 0.208008 1.14803 0.208008 1.56239L0.208008 26.4361C0.209134 27.4667 0.618596 28.4548 1.34655 29.1836C2.07451 29.9124 3.06151 30.3223 4.091 30.3234H30.6534C31.6836 30.3234 32.6717 29.914 33.4006 29.1851C34.1294 28.4562 34.5395 27.4675 34.5406 26.4361V5.44265C34.5387 5.02952 34.3735 4.63396 34.081 4.3425C33.7886 4.05104 33.3927 3.88742 32.98 3.88742ZM32.98 26.4361C32.9793 27.0544 32.7336 27.6471 32.2969 28.0843C31.8602 28.5215 31.2681 28.7675 30.6505 28.7682H4.091C3.47463 28.7656 2.88437 28.5188 2.4492 28.0818C2.01402 27.6448 1.76933 27.0531 1.76858 26.4361V1.56239H29.107V25.2814C29.1077 25.7965 29.3125 26.2902 29.6763 26.6544C30.0401 27.0187 30.5333 27.2236 31.0478 27.2243C31.1526 27.2288 31.2572 27.212 31.3553 27.175C31.4535 27.1379 31.5431 27.0814 31.6189 27.0087C31.6946 26.9361 31.7549 26.8488 31.796 26.7523C31.8372 26.6557 31.8584 26.5517 31.8584 26.4467C31.8584 26.3417 31.8372 26.2378 31.796 26.1412C31.7549 26.0446 31.6946 25.9574 31.6189 25.8848C31.5431 25.8121 31.4535 25.7555 31.3553 25.7185C31.2572 25.6814 31.1526 25.6646 31.0478 25.6691C30.9451 25.6691 30.8465 25.6283 30.7739 25.5556C30.7013 25.4828 30.6605 25.3842 30.6605 25.2814V5.44265H32.98V26.4361Z" fill="white"/>
  </symbol>

  <symbol id="login" viewBox="0 0 34 30" fill="none" >
    <path d="M10.5478 2L7.81445 2C5.05303 2 2.81445 4.23858 2.81445 7.00001V25.3556C2.81445 28.117 5.05303 30.3556 7.81445 30.3556H10.5478" stroke="white" stroke-width="4"/>
    <path d="M32.8752 17.2385C33.461 16.6527 33.461 15.7029 32.8752 15.1171L23.3292 5.57119C22.7435 4.98541 21.7937 4.98541 21.2079 5.57119C20.6221 6.15698 20.6221 7.10673 21.2079 7.69251L29.6932 16.1778L21.2079 24.6631C20.6221 25.2489 20.6221 26.1986 21.2079 26.7844C21.7937 27.3702 22.7435 27.3702 23.3292 26.7844L32.8752 17.2385ZM10.5479 17.6778H31.8145V14.6778H10.5479V17.6778Z" fill="white"/>
  </symbol>

  <symbol id="facebook" viewBox="0 0 24 23" fill="none" >
    <path d="M13.397 20.997v-8.196h2.765l.411-3.209h-3.176V7.548c0-.926.258-1.56 1.587-1.56h1.684V3.127A22.336 22.336 0 0 0 14.201 3c-2.444 0-4.122 1.492-4.122 4.231v2.355H7.332v3.209h2.753v8.202h3.312z" fill="currentColor" />
  </symbol>

  <symbol id="twitter" viewBox="-2 -2 30 29" fill="none" >
    <path d="M23.643 4.937c-.835.37-1.732.62-2.675.733a4.67 4.67 0 0 0 2.048-2.578a9.3 9.3 0 0 1-2.958 1.13a4.66 4.66 0 0 0-7.938 4.25a13.229 13.229 0 0 1-9.602-4.868c-.4.69-.63 1.49-.63 2.342A4.66 4.66 0 0 0 3.96 9.824a4.647 4.647 0 0 1-2.11-.583v.06a4.66 4.66 0 0 0 3.737 4.568a4.692 4.692 0 0 1-2.104.08a4.661 4.661 0 0 0 4.352 3.234a9.348 9.348 0 0 1-5.786 1.995a9.5 9.5 0 0 1-1.112-.065a13.175 13.175 0 0 0 7.14 2.093c8.57 0 13.255-7.098 13.255-13.254c0-.2-.005-.402-.014-.602a9.47 9.47 0 0 0 2.323-2.41l.002-.003z" fill="currentColor"/>
  </symbol>

  <symbol id="instagram"  viewBox="0 0 20 20" fill="none" >
    <path d="M17 1H3c-1.1 0-2 .9-2 2v14c0 1.101.9 2 2 2h14c1.1 0 2-.899 2-2V3c0-1.1-.9-2-2-2zM9.984 15.523a5.539 5.539 0 0 0 5.538-5.539c0-.338-.043-.664-.103-.984H17v7.216a.69.69 0 0 1-.693.69H3.693a.69.69 0 0 1-.693-.69V9h1.549c-.061.32-.104.646-.104.984a5.54 5.54 0 0 0 5.539 5.539zM6.523 9.984a3.461 3.461 0 1 1 6.922 0a3.461 3.461 0 0 1-6.922 0zM16.307 6h-1.615A.694.694 0 0 1 14 5.308V3.691c0-.382.31-.691.691-.691h1.615c.384 0 .694.309.694.691v1.616c0 .381-.31.693-.693.693z" fill="currentColor"/>
  </symbol>

  <symbol id="vk"  viewBox="-2 -2 30 30" fill="none" >
    <path d="M23.45 5.948c.166-.546 0-.948-.795-.948H20.03c-.668 0-.976.347-1.143.73c0 0-1.335 3.196-3.226 5.272c-.612.602-.89.793-1.224.793c-.167 0-.418-.191-.418-.738V5.948c0-.656-.184-.948-.74-.948H9.151c-.417 0-.668.304-.668.593c0 .621.946.765 1.043 2.513v3.798c0 .833-.153.984-.487.984c-.89 0-3.055-3.211-4.34-6.885C4.45 5.288 4.198 5 3.527 5H.9c-.75 0-.9.347-.9.73c0 .682.89 4.07 4.145 8.551C6.315 17.341 9.37 19 12.153 19c1.669 0 1.875-.368 1.875-1.003v-2.313c0-.737.158-.884.687-.884c.39 0 1.057.192 2.615 1.667C19.11 18.216 19.403 19 20.405 19h2.625c.75 0 1.126-.368.91-1.096c-.238-.724-1.088-1.775-2.215-3.022c-.612-.71-1.53-1.475-1.809-1.858c-.389-.491-.278-.71 0-1.147c0 0 3.2-4.426 3.533-5.929z" fill="currentColor"/>
  </symbol>

  <symbol id="share"  viewBox="0 0 24 24" fill="none" >
    <path d="M5.5 15a3.478 3.478 0 0 0 2.357-.93l6.26 3.577a3.52 3.52 0 1 0 1.026-1.717l-6.26-3.577c.066-.25.102-.509.108-.768l6.15-3.515A3.489 3.489 0 1 0 14 5.5c.004.288.043.575.117.853L8.433 9.6A3.5 3.5 0 1 0 5.5 15z" fill="currentColor"/>
  </symbol>

  <symbol id="search"  viewBox="0 0 24 24" fill="none" >
    <path d="M16.5155 14.2592H15.6925L15.4009 13.9892C16.4217 12.8492 17.0363 11.3692 17.0363 9.75922C17.0363 6.16922 14.005 3.25922 10.2655 3.25922C6.52588 3.25922 3.49463 6.16922 3.49463 9.75922C3.49463 13.3492 6.52588 16.2592 10.2655 16.2592C11.9425 16.2592 13.4842 15.6692 14.6717 14.6892L14.953 14.9692V15.7592L20.1613 20.7492L21.7134 19.2592L16.5155 14.2592ZM10.2655 14.2592C7.67171 14.2592 5.57796 12.2492 5.57796 9.75922C5.57796 7.26922 7.67171 5.25922 10.2655 5.25922C12.8592 5.25922 14.953 7.26922 14.953 9.75922C14.953 12.2492 12.8592 14.2592 10.2655 14.2592Z" fill="currentColor"/>
  </symbol>

  <symbol id="inputEmail" viewBox="0 0 21 16" fill="none">
    <path fill-rule="evenodd" clip-rule="evenodd" d="M0 1.2666L0.75 0.516602H20.25L21 1.2666V14.7666L20.25 15.5166H0.75L0 14.7666V1.2666ZM1.5 2.8191V14.0166H19.5V2.8206L10.965 9.3666H10.05L1.5 2.8191ZM18.045 2.0166H2.955L10.5 7.8201L18.045 2.0166Z" fill="#333333"/>
  </symbol>

  <symbol id="inputPassword" viewBox="0 0 21 16" fill="none">
    <path fill-rule="evenodd" clip-rule="evenodd" d="M0 1.2666L0.75 0.516602H20.25L21 1.2666V14.7666L20.25 15.5166H0.75L0 14.7666V1.2666ZM1.5 2.8191V14.0166H19.5V2.8206L10.965 9.3666H10.05L1.5 2.8191ZM18.045 2.0166H2.955L10.5 7.8201L18.045 2.0166Z" fill="#333333"/>
  </symbol>

  <symbol id="inputName" viewBox="0 0 21 16" fill="none">
    <path d="M4.80225 5.05786C4.80225 7.53886 6.82125 9.55786 9.30225 9.55786C11.7832 9.55786 13.8022 7.53886 13.8022 5.05786C13.8022 2.57686 11.7832 0.557861 9.30225 0.557861C6.82125 0.557861 4.80225 2.57686 4.80225 5.05786ZM17.3022 19.5579H18.3022V18.5579C18.3022 14.6989 15.1612 11.5579 11.3022 11.5579H7.30225C3.44225 11.5579 0.302246 14.6989 0.302246 18.5579V19.5579H17.3022Z" fill="#333333"/>
  </symbol>

  <symbol id="inputVuz" viewBox="0 0 21 16" fill="none">
    <path d="M8.30225 17.5579V11.5579H12.3022V17.5579H17.3022V9.55786H20.3022L10.3022 0.557861L0.302246 9.55786H3.30225V17.5579H8.30225Z" fill="black" fill-opacity="0.54"/>
  </symbol>

  <symbol id="classes"  viewBox="0 0 85 70" fill="none" >
    <path d="M84.1874 16.0207L57.3085 5.77313C56.6567 5.52475 55.9272 5.8516 55.6788 6.50269C55.4304 7.15443 55.7573 7.88399 56.409 8.13237L80.194 17.2003L63.7286 23.4784L43.0207 14.1024C42.3852 13.8145 41.6375 14.0966 41.3502 14.7315C41.0623 15.367 41.3444 16.1147 41.9793 16.4027L60.405 24.7456L42.5 31.5717L4.80602 17.2003L42.5 2.82894L51.7891 6.37104C52.4395 6.61877 53.1697 6.29257 53.4188 5.64083C53.6671 4.98974 53.3403 4.26018 52.6886 4.01181L42.9501 0.298503C42.6602 0.188258 42.3398 0.18761 42.0499 0.298503L0.812569 16.0207C0.323601 16.2075 0 16.677 0 17.2003V22.9655C0 23.4888 0.323601 23.9583 0.812569 24.1451L13.6898 29.0542V33.429C13.6898 34.1261 14.2546 34.6916 14.9518 34.6916C15.6496 34.6916 16.2144 34.1261 16.2144 33.429V30.0172L42.0499 39.8673C42.1952 39.9224 42.3476 39.9503 42.5 39.9503C42.6524 39.9503 42.8048 39.9224 42.9501 39.8673L62.4245 32.4426V52.4216C56.3104 55.631 49.4545 57.3508 42.5 57.3508C33.0086 57.3508 23.6987 54.1511 16.2144 48.3283V38.4789C16.2144 37.7817 15.6496 37.2162 14.9518 37.2162C14.2546 37.2162 13.6898 37.7817 13.6898 38.4789V48.9398C13.6898 49.323 13.8636 49.6856 14.1626 49.9249C22.1722 56.3417 32.2362 59.8754 42.5 59.8754C49.4221 59.8754 56.2521 58.2658 62.4245 55.251V60.3605C60.3901 60.9163 58.8902 62.7794 58.8902 64.9875C58.8902 67.6321 61.0419 69.7845 63.6864 69.7845C66.3317 69.7845 68.4834 67.6321 68.4834 64.9875C68.4834 62.7794 66.9834 60.9163 64.9491 60.3605V53.9177C67.0068 52.7471 68.9782 51.4151 70.8381 49.9249C71.137 49.6856 71.3115 49.323 71.3115 48.9398V29.0536L84.1874 24.1444C84.6764 23.9583 85 23.4888 85 22.9648V17.2003C85 16.677 84.6764 16.2075 84.1874 16.0207ZM65.9588 64.9875C65.9588 66.2398 64.9393 67.2592 63.6864 67.2592C62.4342 67.2592 61.4148 66.2398 61.4148 64.9875C61.4148 63.7346 62.4342 62.7152 63.6864 62.7152C64.9393 62.7152 65.9588 63.7346 65.9588 64.9875ZM2.5246 19.033L41.2374 33.7928V36.855L2.5246 22.0952V19.033ZM43.7626 36.855V33.7928L62.4245 26.6775V29.7403L43.7626 36.855ZM68.7862 48.3276C67.5547 49.2861 66.2727 50.1719 64.9491 50.9851V31.4796L68.7862 30.0166V48.3276ZM64.9491 28.7773V25.7151L82.4754 19.033V22.0952L64.9491 28.7773Z" fill="black" fill-opacity="0.21" style="mix-blend-mode:multiply"/>
  </symbol>

  <symbol id="database"  viewBox="0 0 24 24" fill="none">
    <path d="M20.958 3.24585H4.95801C4.42757 3.24585 3.91887 3.45656 3.54379 3.83164C3.16872 4.20671 2.95801 4.71542 2.95801 5.24585V9.24585C2.95801 9.77628 3.16872 10.285 3.54379 10.6601C3.91887 11.0351 4.42757 11.2458 4.95801 11.2458H20.958C21.4884 11.2458 21.9971 11.0351 22.3722 10.6601C22.7473 10.285 22.958 9.77628 22.958 9.24585V5.24585C22.958 4.71542 22.7473 4.20671 22.3722 3.83164C21.9971 3.45656 21.4884 3.24585 20.958 3.24585ZM15.958 7.24585C15.958 7.79813 15.5103 8.24585 14.958 8.24585C14.4057 8.24585 13.958 7.79813 13.958 7.24585C13.958 6.69356 14.4057 6.24585 14.958 6.24585C15.5103 6.24585 15.958 6.69356 15.958 7.24585ZM19.958 7.24585C19.958 7.79813 19.5103 8.24585 18.958 8.24585C18.4057 8.24585 17.958 7.79813 17.958 7.24585C17.958 6.69356 18.4057 6.24585 18.958 6.24585C19.5103 6.24585 19.958 6.69356 19.958 7.24585ZM20.958 13.2458H4.95801C4.42757 13.2458 3.91887 13.4566 3.54379 13.8316C3.16872 14.2067 2.95801 14.7154 2.95801 15.2458V19.2458C2.95801 19.7763 3.16872 20.285 3.54379 20.6601C3.91887 21.0351 4.42757 21.2458 4.95801 21.2458H20.958C21.4884 21.2458 21.9971 21.0351 22.3722 20.6601C22.7473 20.285 22.958 19.7763 22.958 19.2458V15.2458C22.958 14.7154 22.7473 14.2067 22.3722 13.8316C21.9971 13.4566 21.4884 13.2458 20.958 13.2458ZM15.958 17.2458C15.958 17.7981 15.5103 18.2458 14.958 18.2458C14.4057 18.2458 13.958 17.7981 13.958 17.2458C13.958 16.6936 14.4057 16.2458 14.958 16.2458C15.5103 16.2458 15.958 16.6936 15.958 17.2458ZM19.958 17.2458C19.958 17.7981 19.5103 18.2458 18.958 18.2458C18.4057 18.2458 17.958 17.7981 17.958 17.2458C17.958 16.6936 18.4057 16.2458 18.958 16.2458C19.5103 16.2458 19.958 16.6936 19.958 17.2458Z" fill="currentColor" />
 </symbol>

 <symbol id="mappoint"  viewBox="0 0 24 24" fill="none">
   <path d="M19.7344 9.24585C19.7344 8.3266 19.5533 7.41634 19.2015 6.56707C18.8497 5.71779 18.3341 4.94611 17.6841 4.2961C17.0341 3.64609 16.2624 3.13048 15.4132 2.77869C14.5639 2.42691 13.6536 2.24585 12.7344 2.24585C11.8151 2.24585 10.9049 2.42691 10.0556 2.77869C9.20631 3.13048 8.43464 3.64609 7.78463 4.2961C7.13462 4.94611 6.619 5.71779 6.26722 6.56707C5.91544 7.41634 5.73437 8.3266 5.73438 9.24585C5.73438 10.6328 6.14438 11.9228 6.83938 13.0108H6.83138C9.19138 16.7058 12.7344 22.2458 12.7344 22.2458L18.6374 13.0108H18.6304C19.3508 11.8872 19.7339 10.5806 19.7344 9.24585ZM12.7344 12.2458C11.9387 12.2458 11.1757 11.9298 10.6131 11.3672C10.0504 10.8046 9.73438 10.0415 9.73438 9.24585C9.73438 8.4502 10.0504 7.68714 10.6131 7.12453C11.1757 6.56192 11.9387 6.24585 12.7344 6.24585C13.53 6.24585 14.2931 6.56192 14.8557 7.12453C15.4183 7.68714 15.7344 8.4502 15.7344 9.24585C15.7344 10.0415 15.4183 10.8046 14.8557 11.3672C14.2931 11.9298 13.53 12.2458 12.7344 12.2458Z" fill="currentColor"/>
 </symbol>

 <symbol id="user"  viewBox="0 0 24 24" fill="none">
   <path d="M12.0401 11.5458C12.9949 11.5458 13.9106 11.1665 14.5857 10.4914C15.2609 9.81628 15.6401 8.9006 15.6401 7.94583C15.6401 6.99105 15.2609 6.07537 14.5857 5.40024C13.9106 4.72511 12.9949 4.34583 12.0401 4.34583C11.0854 4.34583 10.1697 4.72511 9.49455 5.40024C8.81942 6.07537 8.44014 6.99105 8.44014 7.94583C8.44014 8.9006 8.81942 9.81628 9.49455 10.4914C10.1697 11.1665 11.0854 11.5458 12.0401 11.5458ZM6.93879 22.3458C5.117 22.3458 3.58238 20.8144 4.27955 19.1313C4.70169 18.1121 5.32043 17.1861 6.10044 16.4061C6.88045 15.6261 7.80646 15.0074 8.8256 14.5852C9.84473 14.1631 10.937 13.9458 12.0401 13.9458C13.1432 13.9458 14.2355 14.1631 15.2547 14.5852C16.2738 15.0074 17.1998 15.6261 17.9798 16.4061C18.7598 17.1861 19.3786 18.1121 19.8007 19.1313C20.4979 20.8144 18.9633 22.3458 17.1415 22.3458H6.93879Z" fill="currentColor"/>
 </symbol>

  <symbol id="arrowPrev" viewBox="0 0 39 73" fill="none" >
    <rect width="50" height="5" rx="2.5" transform="matrix(0.707107 0.707107 0.707107 -0.707107 0.108887 37.4409)" fill="currentColor"/>
    <rect width="50" height="5" rx="2.5" transform="matrix(0.707107 0.707107 0.707107 -0.707107 0.108887 37.4409)" fill="currentColor"/>
    <rect x="0.108887" y="36.3154" width="50" height="5" rx="2.5" transform="rotate(-45 0.108887 36.3154)" fill="currentColor"/>
    <rect x="0.108887" y="36.3154" width="50" height="5" rx="2.5" transform="rotate(-45 0.108887 36.3154)" fill="currentColor"/>
  </symbol>

  <symbol id="arrowNext" viewBox="0 0 39 73" fill="none" >
    <rect width="50" height="5" rx="2.5" transform="matrix(-0.707107 -0.707107 -0.707107 0.707107 39.0996 36.3154)" fill="currentColor"/>
    <rect width="50" height="5" rx="2.5" transform="matrix(-0.707107 -0.707107 -0.707107 0.707107 39.0996 36.3154)" fill="currentColor"/>
    <rect x="39.0996" y="37.4409" width="50" height="5" rx="2.5" transform="rotate(135 39.0996 37.4409)" fill="currentColor"/>
    <rect x="39.0996" y="37.4409" width="50" height="5" rx="2.5" transform="rotate(135 39.0996 37.4409)" fill="currentColor"/>
  </symbol>

 <symbol id="burger" viewBox="0 0 52 36" fill="none">
    <rect x="0.604492" y="0.671875" width="51" height="7" rx="3.5" fill="#4A31B7"/>
    <rect x="0.604492" y="14.6719" width="51" height="7" rx="3.5" fill="#4A31B7"/>
    <rect x="0.604492" y="28.6719" width="51" height="7" rx="3.5" fill="#4A31B7"/>
  </symbol>

  <symbol id="closeMenu" viewBox="0 0 42 42" fill="none">
    <rect x="5.54883" y="0.165771" width="51" height="7" rx="3.5" transform="rotate(45 5.54883 0.165771)" fill="#4A31B7"/>
    <rect x="0.598633" y="36.228" width="51" height="7" rx="3.5" transform="rotate(-45 0.598633 36.228)" fill="#4A31B7"/>
  </symbol>

  <symbol id="delImage" viewBox="0 0 42 42" fill="none">
    <rect x="5.54883" y="0.165771" width="51" height="7" rx="3.5" transform="rotate(45 5.54883 0.165771)" fill="#FFFFFF"/>
    <rect x="0.598633" y="36.228" width="51" height="7" rx="3.5" transform="rotate(-45 0.598633 36.228)" fill="#FFFFFF"/>
  </symbol>

 <symbol id="date"  viewBox="0 63 24 24" fill="none">
  <path d="M6.20801 9H4.20801V11H6.20801V9ZM10.208 9H8.20801V11H10.208V9ZM14.208 9H12.208V11H14.208V9ZM16.208 2H15.208V0H13.208V2H5.20801V0H3.20801V2H2.20801C1.09801 2 0.218008 2.9 0.218008 4L0.208008 18C0.208008 19.1 1.09801 20 2.20801 20H16.208C17.308 20 18.208 19.1 18.208 18V4C18.208 2.9 17.308 2 16.208 2ZM16.208 18H2.20801V7H16.208V18Z" fill="currentColor"/>
 </symbol>
</svg>
